<svg xmlns:mydata="http://www.w3.org/2000/svg" mydata:contrastcolor="ffc7ad" mydata:template="InvertedHex1" mydata:presentation="2.5" mydata:layouttype="undefined" mydata:specialfontid="undefined" mydata:id1="203" mydata:id2="768" mydata:companyname="Chad's Choperia" mydata:companytagline="" version="1.1" xmlns="http://www.w3.org/2000/svg" xmlns:xlink="http://www.w3.org/1999/xlink" viewBox="0 0 550 470"><g fill="#ffffff" fill-rule="evenodd" stroke="none" stroke-width="1" stroke-linecap="butt" stroke-linejoin="miter" stroke-miterlimit="10" stroke-dasharray="" stroke-dashoffset="0" font-family="none" font-weight="none" font-size="none" text-anchor="none" style="mix-blend-mode: normal"><g data-paper-data="{&quot;isGlobalGroup&quot;:true,&quot;bounds&quot;:{&quot;x&quot;:170.3252141106145,&quot;y&quot;:106,&quot;width&quot;:209.34957177877098,&quot;height&quot;:258}}"><g data-paper-data="{&quot;fillRule&quot;:&quot;evenodd&quot;,&quot;fillRuleOriginal&quot;:&quot;evenodd&quot;,&quot;isIcon&quot;:true,&quot;iconStyle&quot;:&quot;standalone&quot;,&quot;selectedEffects&quot;:{&quot;container&quot;:&quot;&quot;,&quot;transformation&quot;:&quot;&quot;,&quot;pattern&quot;:&quot;&quot;},&quot;bounds&quot;:{&quot;x&quot;:230.58603164634465,&quot;y&quot;:203.7901464752256,&quot;width&quot;:88.9043596747392,&quot;height&quot;:123.31899029689313},&quot;iconType&quot;:&quot;initial&quot;,&quot;initialText&quot;:&quot;C&quot;,&quot;rawInitialId&quot;:961,&quot;disableIconEffects&quot;:&quot;true&quot;,&quot;monogramSpecial&quot;:&quot;seven-nation-army&quot;,&quot;suitableAsStandaloneIcon&quot;:true}"><path d="M309.38073,265.52624c0.19126,0.09364 0.38078,0.19075 0.56857,0.29114c0.26044,0.13928 0.51719,0.28459 0.77007,0.43615c0.25348,0.15186 0.50338,0.31017 0.7499,0.47483c0.24529,0.16404 0.48649,0.33402 0.72381,0.50993c0.23732,0.17591 0.47002,0.35756 0.69812,0.54483c0.22831,0.18737 0.4518,0.38017 0.67069,0.5785c0.219,0.19843 0.43318,0.40238 0.64255,0.61175c0.20845,0.20845 0.41189,0.42223 0.61032,0.64112c0.19822,0.21869 0.39102,0.44229 0.57859,0.6708c0.18727,0.22831 0.36891,0.46102 0.54503,0.69832c0.17581,0.23711 0.34609,0.47882 0.51085,0.72534c0.16384,0.24529 0.32154,0.49448 0.47309,0.74734c0.15186,0.25338 0.29748,0.51034 0.43676,0.77078c0.13907,0.26023 0.2719,0.52416 0.39849,0.79166c0.12638,0.2674 0.24601,0.53736 0.35888,0.80987c0.11308,0.27292 0.2193,0.54841 0.31877,0.82635c0.09957,0.27824 0.19218,0.55844 0.27763,0.84057c0.08606,0.28336 0.16496,0.56836 0.2367,0.855c0.07173,0.28633 0.13631,0.5743 0.19393,0.8638c0.05761,0.28971 0.10827,0.58105 0.15176,0.87414c0.04319,0.29155 0.07931,0.58453 0.10827,0.87874c0.02892,0.29343 0.05065,0.58801 0.06519,0.88376c0.01443,0.29493 0.02169,0.58996 0.02169,0.88499v2.82442c0,13.3858 -4.93851,24.15202 -14.81552,32.29869c-8.28483,6.83338 -18.16372,10.25008 -29.63666,10.25008c-11.47295,0 -21.35181,-3.41669 -29.63661,-10.25008c-9.87704,-8.14665 -14.81557,-18.91288 -14.81557,-32.29869v-38.68228c0,-13.30936 4.98183,-23.99583 14.94551,-32.05942c8.26127,-6.68569 18.09683,-10.02853 29.50666,-10.02853c11.40994,0 21.24547,3.34284 29.5066,10.02853c9.96372,8.06358 14.94558,18.75005 14.94558,32.05942v3.43842c0,0.29503 -0.00726,0.59057 -0.02169,0.88662c-0.01453,0.29452 -0.03633,0.58903 -0.06529,0.88345c-0.02896,0.29339 -0.06508,0.58627 -0.10837,0.87874c-0.04339,0.29216 -0.09394,0.5831 -0.15156,0.87281c-0.05761,0.2896 -0.12218,0.57737 -0.19382,0.86329c-0.07184,0.28694 -0.15063,0.57174 -0.23639,0.85449c-0.08586,0.28285 -0.17857,0.56345 -0.27815,0.8419c-0.09947,0.27784 -0.20549,0.5527 -0.31816,0.82481c-0.11308,0.27323 -0.23302,0.54381 -0.35981,0.81182c-0.12628,0.26699 -0.25901,0.5306 -0.39808,0.79094c-0.13928,0.26044 -0.2849,0.5174 -0.43676,0.77078c-0.15166,0.25297 -0.30976,0.50267 -0.47432,0.74919c-0.16394,0.24529 -0.33392,0.48649 -0.50983,0.7237c-0.17591,0.23711 -0.35756,0.46992 -0.54493,0.69823c-0.18748,0.22841 -0.38058,0.45222 -0.57921,0.67152c-0.19802,0.21838 -0.40146,0.43205 -0.61022,0.64092c-0.20887,0.20887 -0.42295,0.41261 -0.64204,0.61124c-0.21879,0.19822 -0.44229,0.39102 -0.6706,0.57839c-0.2281,0.18717 -0.46102,0.36891 -0.69853,0.54513c-0.23701,0.17581 -0.47851,0.34592 -0.72452,0.51034c-0.24571,0.16414 -0.49509,0.32205 -0.74816,0.4736c-0.25328,0.15197 -0.51024,0.29748 -0.77078,0.43676c-0.18768,0.10039 -0.3772,0.1974 -0.56846,0.29104zM279.95855,281.32702c-0.00665,0.13569 -0.01003,0.272 -0.01003,0.40893c0,0.07931 -0.00194,0.15862 -0.00583,0.23793c-0.00389,0.07931 -0.00972,0.15842 -0.0175,0.23732c-0.00778,0.079 -0.0175,0.1578 -0.02916,0.23629c-0.01156,0.07849 -0.02518,0.15657 -0.04063,0.23445c-0.01545,0.07788 -0.03285,0.15524 -0.05219,0.2322c-0.01934,0.07696 -0.04042,0.1534 -0.06345,0.22943c-0.02302,0.07593 -0.048,0.15125 -0.07471,0.22595c-0.02671,0.07471 -0.05526,0.14869 -0.08565,0.22207c-0.03039,0.07327 -0.06253,0.14582 -0.0964,0.21756c-0.03387,0.07173 -0.06959,0.14255 -0.10704,0.21255c-0.03735,0.07 -0.07645,0.13907 -0.11728,0.20713c-0.04083,0.06805 -0.0832,0.13508 -0.1273,0.20108c-0.04411,0.06601 -0.08985,0.13079 -0.13713,0.19454c-0.04718,0.06376 -0.09599,0.12628 -0.14634,0.18768c-0.05035,0.0613 -0.10213,0.12137 -0.15544,0.18021c-0.05332,0.05874 -0.10806,0.11615 -0.16414,0.17233c-0.05618,0.05608 -0.11359,0.11083 -0.17233,0.16414c-0.05884,0.05332 -0.11891,0.1051 -0.18021,0.15544c-0.0614,0.05035 -0.12393,0.09916 -0.18768,0.14634c-0.06376,0.04728 -0.12853,0.09302 -0.19454,0.13713c-0.06601,0.04411 -0.13304,0.08647 -0.20108,0.1273c-0.06805,0.04083 -0.13713,0.07992 -0.20713,0.11728c-0.07,0.03745 -0.14081,0.07317 -0.21255,0.10704c-0.07173,0.03387 -0.14429,0.06601 -0.21756,0.0964c-0.07337,0.03039 -0.14736,0.05895 -0.22207,0.08565c-0.07471,0.02671 -0.15002,0.05168 -0.22595,0.07471c-0.07593,0.02299 -0.15241,0.04414 -0.22943,0.06345c-0.07696,0.01934 -0.15432,0.03674 -0.2322,0.05219c-0.07785,0.01549 -0.15599,0.02903 -0.23445,0.04063c-0.07849,0.01167 -0.15729,0.02139 -0.23629,0.02916c-0.0789,0.00778 -0.158,0.01361 -0.23732,0.0175c-0.07928,0.00389 -0.15858,0.00583 -0.23793,0.00583c-0.07931,0 -0.15862,-0.00194 -0.23793,-0.00583c-0.07931,-0.00389 -0.15842,-0.00972 -0.23732,-0.0175c-0.079,-0.00778 -0.15776,-0.0175 -0.23629,-0.02916c-0.07846,-0.0116 -0.1566,-0.02514 -0.23445,-0.04063c-0.07788,-0.01545 -0.15524,-0.03285 -0.2322,-0.05219c-0.07696,-0.01934 -0.1534,-0.04042 -0.22943,-0.06345c-0.07593,-0.02302 -0.15125,-0.048 -0.22595,-0.07471c-0.07471,-0.02671 -0.14869,-0.05526 -0.22207,-0.08565c-0.07327,-0.03039 -0.14582,-0.06253 -0.21756,-0.0964c-0.07173,-0.03387 -0.14255,-0.06959 -0.21255,-0.10704c-0.07,-0.03735 -0.13907,-0.07645 -0.20713,-0.11728c-0.06805,-0.04083 -0.13508,-0.0832 -0.20108,-0.1273c-0.06601,-0.04411 -0.13079,-0.08985 -0.19454,-0.13713c-0.06376,-0.04718 -0.12628,-0.09599 -0.18768,-0.14634c-0.0613,-0.05035 -0.12137,-0.10213 -0.18021,-0.15544c-0.05874,-0.05332 -0.11615,-0.10806 -0.17233,-0.16414c-0.05608,-0.05618 -0.11083,-0.11359 -0.16414,-0.17233c-0.05332,-0.05884 -0.1051,-0.11891 -0.15544,-0.18021c-0.05035,-0.0614 -0.09916,-0.12393 -0.14634,-0.18768c-0.04728,-0.06376 -0.09302,-0.12853 -0.13713,-0.19454c-0.04411,-0.06601 -0.08647,-0.13304 -0.1273,-0.20108c-0.04083,-0.06805 -0.07992,-0.13713 -0.11728,-0.20713c-0.03745,-0.07 -0.07313,-0.14085 -0.10704,-0.21255c-0.03387,-0.07173 -0.06601,-0.14429 -0.0964,-0.21756c-0.03039,-0.07337 -0.05895,-0.14736 -0.08565,-0.22207c-0.02671,-0.07471 -0.05168,-0.15002 -0.07471,-0.22595c-0.02302,-0.07603 -0.04411,-0.15248 -0.06345,-0.22943c-0.01934,-0.07696 -0.03674,-0.15432 -0.05219,-0.2322c-0.01545,-0.07788 -0.02906,-0.15596 -0.04063,-0.23445c-0.01167,-0.07849 -0.02139,-0.15729 -0.02916,-0.23629c-0.00778,-0.0789 -0.01361,-0.158 -0.0175,-0.23732c-0.00389,-0.07931 -0.00583,-0.15862 -0.00583,-0.23793v-32.41943c0,-0.07934 0.00194,-0.15865 0.00583,-0.23793c0.00389,-0.07931 0.00972,-0.15842 0.0175,-0.23732c0.00778,-0.079 0.0175,-0.1578 0.02916,-0.23629c0.01156,-0.07849 0.02518,-0.15657 0.04063,-0.23445c0.01545,-0.07788 0.03285,-0.15524 0.05219,-0.2322c0.01934,-0.07706 0.04042,-0.1535 0.06345,-0.22943c0.02302,-0.07593 0.048,-0.15125 0.07471,-0.22595c0.02671,-0.07471 0.05526,-0.14869 0.08565,-0.22207c0.03039,-0.07327 0.06253,-0.14582 0.0964,-0.21756c0.03391,-0.0717 0.06959,-0.14255 0.10704,-0.21255c0.03738,-0.07 0.07648,-0.13904 0.11728,-0.20713c0.04083,-0.06805 0.0832,-0.13508 0.1273,-0.20108c0.04411,-0.06601 0.08985,-0.13079 0.13713,-0.19454c0.04721,-0.06372 0.09599,-0.12628 0.14634,-0.18768c0.05035,-0.0613 0.10213,-0.12137 0.15544,-0.18021c0.05335,-0.05874 0.10806,-0.11618 0.16414,-0.17233c0.05615,-0.05608 0.11359,-0.1108 0.17233,-0.16414c0.05884,-0.05332 0.11891,-0.1051 0.18021,-0.15544c0.0614,-0.05035 0.12393,-0.09916 0.18768,-0.14634c0.06376,-0.04728 0.12853,-0.09302 0.19454,-0.13713c0.06601,-0.04411 0.13304,-0.08647 0.20108,-0.1273c0.06808,-0.0408 0.13713,-0.07989 0.20713,-0.11728c0.07,-0.03745 0.14081,-0.07317 0.21255,-0.10704c0.07173,-0.03387 0.14429,-0.06601 0.21756,-0.0964c0.07337,-0.03039 0.14736,-0.05895 0.22207,-0.08565c0.07471,-0.02671 0.15002,-0.05168 0.22595,-0.07471c0.07603,-0.02302 0.15248,-0.04411 0.22943,-0.06345c0.07696,-0.01934 0.15432,-0.03674 0.2322,-0.05219c0.07788,-0.01545 0.15596,-0.02906 0.23445,-0.04063c0.07849,-0.01167 0.15729,-0.02139 0.23629,-0.02916c0.07894,-0.00778 0.15804,-0.01361 0.23732,-0.0175c0.07931,-0.00389 0.15862,-0.00583 0.23793,-0.00583c0.07931,0 0.15862,0.00194 0.23793,0.00583c0.07928,0.00389 0.15838,0.00972 0.23732,0.0175c0.079,0.00778 0.1578,0.0175 0.23629,0.02916c0.07849,0.01156 0.15657,0.02518 0.23445,0.04063c0.07788,0.01545 0.15524,0.03285 0.2322,0.05219c0.07706,0.01934 0.1535,0.04042 0.22943,0.06345c0.07593,0.02302 0.15125,0.048 0.22595,0.07471c0.07471,0.02674 0.14872,0.0553 0.22207,0.08565c0.07327,0.03039 0.14582,0.06253 0.21756,0.0964c0.07173,0.03387 0.14255,0.06959 0.21255,0.10704c0.07,0.03738 0.13904,0.07648 0.20713,0.11728c0.06805,0.04083 0.13508,0.0832 0.20108,0.1273c0.06601,0.04411 0.13079,0.08985 0.19454,0.13713c0.06376,0.04718 0.12628,0.09599 0.18768,0.14634c0.0613,0.05035 0.12137,0.10213 0.18021,0.15544c0.05874,0.05335 0.11618,0.10806 0.17233,0.16414c0.05608,0.05615 0.1108,0.11359 0.16414,0.17233c0.05332,0.05884 0.1051,0.11891 0.15544,0.18021c0.05035,0.0614 0.09916,0.12393 0.14634,0.18768c0.04728,0.06372 0.09299,0.12857 0.13713,0.19454c0.04411,0.06601 0.08647,0.13304 0.1273,0.20108c0.04083,0.06805 0.07992,0.13713 0.11728,0.20713c0.03745,0.07 0.07317,0.14081 0.10704,0.21255c0.03387,0.07173 0.06601,0.14429 0.0964,0.21756c0.03039,0.07337 0.05895,0.14736 0.08565,0.22207c0.02671,0.07471 0.05168,0.15002 0.07471,0.22595c0.02302,0.07593 0.04411,0.15237 0.06345,0.22943c0.01934,0.07696 0.03674,0.15432 0.05219,0.2322c0.01545,0.07788 0.02906,0.15596 0.04063,0.23445c0.01167,0.07849 0.02139,0.15729 0.02916,0.23629c0.00778,0.0789 0.01361,0.158 0.0175,0.23732c0.00389,0.07928 0.00583,0.15858 0.00583,0.23793c0,0.13692 0.00338,0.27374 0.01003,0.41046c0.00675,0.136 0.01678,0.27221 0.03019,0.40862c0.0134,0.1358 0.03019,0.27159 0.05035,0.40729c0.01992,0.13447 0.04322,0.26876 0.0699,0.40289c0.02674,0.1342 0.05673,0.26771 0.08995,0.40053c0.03306,0.13232 0.06948,0.26361 0.10909,0.39399c0.03981,0.13129 0.08279,0.26136 0.12874,0.39c0.04595,0.12843 0.09517,0.25594 0.14756,0.38242c0.0525,0.12679 0.10786,0.25174 0.16609,0.37495c0.05833,0.12331 0.11973,0.2452 0.1842,0.36584c0.06447,0.12065 0.1318,0.23957 0.20211,0.35674c0.07051,0.11758 0.14388,0.23342 0.22002,0.34753c0.07542,0.11278 0.15381,0.22411 0.23537,0.33412c0.08146,0.1097 0.16557,0.21746 0.25235,0.32327c0.08688,0.10571 0.17612,0.20927 0.26781,0.31048c0.09179,0.10121 0.18625,0.20037 0.28326,0.29748c0.09609,0.09609 0.19505,0.19024 0.29687,0.28254c0.1007,0.09118 0.20395,0.18021 0.30966,0.26709c0.10571,0.08678 0.21357,0.1709 0.32348,0.25246c0.10991,0.08153 0.22179,0.16032 0.33566,0.23639c0.11287,0.07542 0.2281,0.14838 0.34568,0.21889c0.11728,0.0703 0.23619,0.13764 0.35684,0.20211c0.12065,0.06447 0.24273,0.12597 0.36646,0.18441c0.1228,0.05813 0.24714,0.11328 0.37301,0.16537c0.1273,0.0527 0.25542,0.10213 0.38426,0.14818c0.12833,0.04595 0.25788,0.08872 0.38856,0.12843c0.13099,0.0397 0.26248,0.07614 0.3946,0.10919c0.13304,0.03326 0.26668,0.06334 0.40084,0.09005c0.13416,0.02671 0.26883,0.05004 0.40422,0.0701c0.13478,0.01995 0.27057,0.03674 0.40719,0.05025c0.1356,0.01331 0.272,0.02333 0.40903,0.03008c0.1356,0.00665 0.2719,0.01003 0.40883,0.01003h13.13969c0.13692,0 0.27374,-0.00338 0.41046,-0.01003c0.136,-0.00675 0.27221,-0.01678 0.40872,-0.03019c0.1358,-0.0134 0.27149,-0.03019 0.40719,-0.05035c0.13447,-0.01995 0.26873,-0.04319 0.40278,-0.0699c0.13426,-0.02671 0.26781,-0.0567 0.40064,-0.08995c0.13232,-0.03315 0.26361,-0.06948 0.39399,-0.10898c0.13129,-0.03991 0.26136,-0.08289 0.39,-0.12884c0.12853,-0.04595 0.25604,-0.09517 0.38242,-0.14756c0.12679,-0.0525 0.25174,-0.10786 0.37506,-0.16619c0.12311,-0.05823 0.24509,-0.11963 0.36584,-0.1842c0.12055,-0.06437 0.23946,-0.1317 0.35674,-0.20201c0.11758,-0.07051 0.23322,-0.14378 0.34681,-0.21961c0.11308,-0.07563 0.22472,-0.15422 0.33484,-0.23588c0.1097,-0.08135 0.21746,-0.16548 0.32317,-0.25226c0.10571,-0.08678 0.20927,-0.17612 0.31059,-0.26791c0.10121,-0.09179 0.20006,-0.18584 0.29656,-0.28234c0.09671,-0.09671 0.19116,-0.19587 0.28336,-0.29769c0.09139,-0.1008 0.18042,-0.20395 0.26709,-0.30966c0.08688,-0.10581 0.171,-0.21367 0.25246,-0.32348c0.08146,-0.1098 0.16025,-0.22176 0.23639,-0.33566c0.07542,-0.11287 0.14838,-0.22821 0.21889,-0.34579c0.07027,-0.11721 0.13764,-0.23612 0.20211,-0.35674c0.06447,-0.12065 0.12597,-0.24273 0.18451,-0.36646c0.05802,-0.1228 0.11318,-0.24714 0.16527,-0.37301c0.0527,-0.12741 0.10213,-0.25553 0.14818,-0.38416c0.04595,-0.12843 0.08872,-0.25798 0.12833,-0.38856c0.03981,-0.13109 0.07624,-0.26269 0.10929,-0.3946c0.03326,-0.13314 0.06334,-0.26678 0.09005,-0.40095c0.02671,-0.13416 0.05004,-0.26893 0.0701,-0.40412c0.01995,-0.13487 0.03674,-0.27067 0.05025,-0.40739c0.01331,-0.13549 0.02333,-0.2718 0.03008,-0.40883c0.00665,-0.1358 0.01003,-0.2721 0.01003,-0.40893v-3.43842c0,-10.2245 -3.78288,-18.39813 -11.34854,-24.52108c-6.48245,-5.24625 -14.2844,-7.86939 -23.40585,-7.86939c-9.12151,0 -16.92344,2.62313 -23.4058,7.86939c-7.56572,6.12292 -11.34858,14.29661 -11.34858,24.52108v38.68228c0,10.33773 3.76281,18.61017 11.28843,24.81734c6.49332,5.35574 14.31531,8.03362 23.46595,8.03362c9.15065,0 16.97261,-2.67787 23.46591,-8.03362c7.52565,-6.20718 11.28847,-14.47963 11.28847,-24.81735v-2.82442c0,-0.13685 -0.00334,-0.27371 -0.01003,-0.41057c-0.00675,-0.1358 -0.01678,-0.272 -0.03019,-0.40852c-0.0134,-0.1358 -0.03019,-0.27159 -0.05035,-0.40739c-0.01995,-0.13426 -0.04319,-0.26853 -0.0699,-0.40278c-0.02671,-0.13426 -0.0567,-0.26771 -0.08995,-0.40044c-0.03315,-0.13232 -0.06948,-0.26372 -0.10909,-0.39409c-0.03981,-0.13129 -0.08279,-0.26126 -0.12874,-0.38989c-0.04595,-0.12843 -0.09517,-0.25604 -0.14767,-0.38263c-0.05239,-0.12659 -0.10776,-0.25164 -0.16609,-0.37495c-0.05826,-0.12321 -0.11963,-0.24512 -0.1841,-0.36574c-0.06447,-0.12055 -0.1318,-0.23946 -0.20211,-0.35674c-0.07051,-0.11758 -0.14388,-0.23353 -0.22012,-0.34763c-0.07532,-0.11267 -0.15381,-0.22401 -0.23537,-0.33402c-0.08139,-0.10977 -0.16551,-0.21756 -0.25235,-0.32337c-0.08667,-0.10571 -0.17591,-0.20917 -0.26771,-0.31038c-0.09179,-0.10121 -0.18614,-0.20037 -0.28326,-0.29748c-0.09609,-0.09609 -0.19474,-0.19003 -0.29605,-0.28183c-0.10121,-0.09179 -0.20477,-0.18103 -0.31048,-0.26781c-0.10571,-0.08678 -0.21357,-0.171 -0.32358,-0.25256c-0.1098,-0.08135 -0.22165,-0.16015 -0.33555,-0.23629c-0.11287,-0.07542 -0.2279,-0.14818 -0.34507,-0.21838c-0.11768,-0.07061 -0.2368,-0.13815 -0.35745,-0.20262c-0.12065,-0.06447 -0.24273,-0.12597 -0.36646,-0.18441c-0.1227,-0.05802 -0.24703,-0.11318 -0.37301,-0.16537c-0.1273,-0.0527 -0.25542,-0.10213 -0.38437,-0.14828c-0.12826,-0.04591 -0.25771,-0.08865 -0.38836,-0.12823c-0.13109,-0.03981 -0.26259,-0.07624 -0.3947,-0.10929c-0.13293,-0.03326 -0.26658,-0.06334 -0.40095,-0.09005c-0.13416,-0.02671 -0.26883,-0.05004 -0.40402,-0.0701c-0.13487,-0.01995 -0.27067,-0.03674 -0.40729,-0.05025c-0.1356,-0.01331 -0.2719,-0.02333 -0.40893,-0.03008c-0.13569,-0.00665 -0.272,-0.01003 -0.40893,-0.01003h-13.13969c-0.13692,0 -0.27374,0.00338 -0.41046,0.01003c-0.136,0.00675 -0.27221,0.01678 -0.40862,0.03019c-0.13583,0.01344 -0.27159,0.03023 -0.40729,0.05035c-0.13436,0.01995 -0.26873,0.04319 -0.40289,0.0699c-0.13426,0.02671 -0.26771,0.0567 -0.40044,0.08995c-0.13232,0.03315 -0.26372,0.06948 -0.39409,0.10909c-0.13129,0.03981 -0.26136,0.08269 -0.39,0.12874c-0.12853,0.04595 -0.25604,0.09517 -0.38242,0.14756c-0.12679,0.0525 -0.25184,0.10786 -0.37495,0.16609c-0.12331,0.05833 -0.2452,0.11973 -0.36584,0.1842c-0.12065,0.06447 -0.23957,0.1318 -0.35674,0.20211c-0.11758,0.07051 -0.23342,0.14388 -0.34753,0.22002c-0.11278,0.07542 -0.22411,0.15391 -0.33412,0.23547c-0.1097,0.08135 -0.21746,0.16537 -0.32327,0.25226c-0.10571,0.08678 -0.20927,0.17612 -0.31059,0.26791c-0.10121,0.09169 -0.20027,0.18605 -0.29738,0.28316c-0.09609,0.09609 -0.19024,0.19505 -0.28244,0.29677c-0.09128,0.10076 -0.18038,0.20406 -0.26729,0.30987c-0.08667,0.10571 -0.1708,0.21347 -0.25235,0.32337c-0.08146,0.10984 -0.16025,0.22172 -0.23639,0.33566c-0.07542,0.11287 -0.14838,0.22821 -0.21889,0.34579c-0.0702,0.11717 -0.13754,0.23608 -0.20201,0.35663c-0.06457,0.12065 -0.12608,0.24284 -0.18451,0.36656c-0.05813,0.1228 -0.11328,0.24714 -0.16537,0.37301c-0.0527,0.1273 -0.10213,0.25542 -0.14818,0.38426c-0.04595,0.12833 -0.08883,0.25788 -0.12843,0.38856c-0.03981,0.13099 -0.07614,0.26248 -0.10919,0.3946c-0.03326,0.13293 -0.06334,0.26658 -0.09005,0.40095c-0.02671,0.13406 -0.05004,0.26873 -0.0701,0.40412c-0.01995,0.13478 -0.03674,0.27057 -0.05025,0.40719c-0.01331,0.13563 -0.02333,0.27194 -0.03008,0.40893zM261.89854,245.87809v38.68228c0,16.57812 26.40219,16.57812 26.40219,0v-2.82442h13.13969v2.82442c0,32.66503 -52.80438,32.66503 -52.80438,0v-38.68228c0,-32.05102 52.80438,-32.05102 52.80438,0v3.43842h-13.13969v-3.43842c0,-16.57812 -26.40219,-16.57812 -26.40219,0zM279.94853,265.31788c0.13641,0.07122 0.27374,0.14071 0.41189,0.20835c-0.13822,0.06775 -0.27552,0.1372 -0.41189,0.20835z" data-paper-data="{&quot;isPathIcon&quot;:true}"></path></g><g data-paper-data="{&quot;isContainerElementsWrapper&quot;:true}"><path d="M185.61224,106.00001h0.17255c0.67946,0 1.34738,0.08779 2.00375,0.26336c28.55019,7.63682 57.64609,11.46019 87.28769,11.47012c29.52192,-0.01412 58.62253,-3.83813 87.30197,-11.47202c0.24157,-0.0644 0.48602,-0.11686 0.7319,-0.1574c0.24445,-0.04065 0.49177,-0.06944 0.74053,-0.08633c0.24876,-0.01681 0.49752,-0.02167 0.74485,-0.01458c0.24876,0.0071 0.49752,0.0261 0.74341,0.05697c0.24876,0.03102 0.49321,0.07388 0.73622,0.12859c0.24157,0.05441 0.48027,0.1203 0.71753,0.19766c0.23726,0.07796 0.46876,0.1665 0.69452,0.26561c0.23151,0.10078 0.45438,0.21153 0.66864,0.33228c0.22,0.12225 0.42994,0.25335 0.63125,0.3933c0.20562,0.14215 0.40693,0.29557 0.60105,0.46024c0.18693,0.15919 0.36667,0.32701 0.53922,0.50349c0.17351,0.17791 0.33839,0.36373 0.49465,0.55747c0.15721,0.19645 0.30292,0.39708 0.43713,0.6019c0.13804,0.21104 0.26458,0.42499 0.37817,0.64185c0.11647,0.22092 0.22288,0.45032 0.32066,0.68819c0.09059,0.22488 0.17255,0.45673 0.24589,0.69556c3.30867,11.03465 5.5087,24.36423 6.59864,39.98874c3.82105,40.68593 -0.96437,78.34987 -14.35626,112.99182c-16.61763,43.08411 -44.00553,75.54913 -82.16368,97.39506c-2.13546,1.22943 -4.23843,1.92251 -6.3089,2.07637c-0.38119,0.02876 -0.76426,0.02876 -1.1489,0.00144c-2.06889,-0.15242 -4.16999,-0.84119 -6.30344,-2.06774c-38.16899,-21.85265 -65.56177,-54.3191 -82.17835,-97.39938c-13.36862,-34.58481 -18.15467,-72.24971 -14.35815,-112.99469c1.0888,-15.63707 3.2891,-28.96849 6.60091,-39.99428c0.05947,-0.19796 0.12674,-0.39324 0.20181,-0.58583c0.07509,-0.19262 0.15776,-0.38195 0.248,-0.56797c0.09025,-0.18603 0.18775,-0.36809 0.2925,-0.5462c0.1048,-0.17823 0.21655,-0.35199 0.33525,-0.52128c0.11872,-0.16929 0.24396,-0.33353 0.37574,-0.49269c0.13185,-0.15929 0.26983,-0.31303 0.41394,-0.46121c0.14415,-0.14825 0.29398,-0.29048 0.44947,-0.42669c0.15551,-0.13624 0.31621,-0.26605 0.48211,-0.38943c0.16586,-0.12336 0.33637,-0.2399 0.51153,-0.34962c0.17527,-0.10979 0.35459,-0.21235 0.53794,-0.3077c0.18338,-0.09539 0.37032,-0.18334 0.56083,-0.26382c0.19043,-0.08044 0.38377,-0.15315 0.58003,-0.21813c0.19622,-0.06497 0.39478,-0.12201 0.59568,-0.17114c0.20075,-0.04908 0.40317,-0.09009 0.60728,-0.123c0.20411,-0.03291 0.40918,-0.05762 0.61516,-0.07411c0.2061,-0.01652 0.41253,-0.02478 0.61929,-0.02478zM185.61224,110.65262c-0.08267,0 -0.1652,0.00331 -0.24761,0.00991c-0.08251,0.0066 -0.16457,0.01649 -0.24619,0.02965c-0.0816,0.01316 -0.16262,0.02958 -0.24302,0.04923c-0.08025,0.01963 -0.15965,0.04243 -0.23818,0.06845c-0.0785,0.02598 -0.15584,0.05507 -0.23202,0.08725c-0.07611,0.03215 -0.15084,0.06731 -0.22422,0.10547c-0.07342,0.03818 -0.14514,0.0792 -0.21516,0.12307c-0.07013,0.04391 -0.13837,0.09055 -0.20473,0.13991c-0.06633,0.04934 -0.13061,0.10126 -0.1928,0.15574c-0.06222,0.0545 -0.12212,0.11137 -0.17974,0.17062c-0.05766,0.0593 -0.11285,0.12078 -0.16555,0.18445c-0.0528,0.06377 -0.10293,0.1295 -0.15036,0.19717c-0.04747,0.06769 -0.09216,0.13716 -0.13406,0.20842c-0.04197,0.07137 -0.081,0.14424 -0.11708,0.21861c-0.03608,0.07438 -0.06914,0.15008 -0.09917,0.22711c-0.03004,0.07707 -0.05697,0.15522 -0.08077,0.23445c-3.2141,10.70046 -5.3532,23.70242 -6.41731,39.00589c-0.00127,0.01831 -0.00275,0.03652 -0.00445,0.05464c-3.73347,40.02928 0.95412,77.00038 14.06279,110.91329c16.22094,42.05359 42.9377,73.73303 80.15027,95.0383c1.52535,0.87714 2.96989,1.36603 4.33377,1.46668c0.15113,0.01007 0.30369,0.01007 0.45784,-0.00144c1.36761,-0.10209 2.81287,-0.59243 4.33607,-1.46956c37.20797,-21.30144 63.9233,-52.98039 80.14599,-95.03686c13.1321,-33.97082 17.81878,-70.94115 14.06004,-110.91099c-0.00144,-0.01869 -0.00288,-0.03739 -0.00431,-0.05608c-1.06407,-15.29196 -3.20274,-28.29296 -6.41603,-39.003c-0.02876,-0.09506 -0.06279,-0.19139 -0.10209,-0.28897c-0.03451,-0.08436 -0.07477,-0.17047 -0.12079,-0.25835c-0.04745,-0.0915 -0.09922,-0.1775 -0.15242,-0.25801c-0.0556,-0.08663 -0.11408,-0.16759 -0.17543,-0.24288c-0.06183,-0.07794 -0.12798,-0.15277 -0.19843,-0.22448c-0.07094,-0.07308 -0.14523,-0.14252 -0.22288,-0.20833c-0.0719,-0.06023 -0.14811,-0.11854 -0.23007,-0.17492c-0.08484,-0.05839 -0.16968,-0.11151 -0.25451,-0.15932c-0.08771,-0.04934 -0.17686,-0.09357 -0.26602,-0.13266c-0.09347,-0.04082 -0.18693,-0.07661 -0.2804,-0.10736c-0.0949,-0.03131 -0.19124,-0.05794 -0.28902,-0.07989c-0.09634,-0.02164 -0.19412,-0.03862 -0.29334,-0.05096c-0.09922,-0.01248 -0.19843,-0.02013 -0.29765,-0.02296c-0.09922,-0.00285 -0.19987,-0.00089 -0.29909,0.00588c-0.09922,0.00667 -0.197,0.01812 -0.29477,0.03432c-0.09922,0.01632 -0.19556,0.03711 -0.28902,0.06235c-29.07439,7.73879 -58.57498,11.61534 -88.50178,11.62965c-30.05137,-0.01007 -59.5487,-3.88611 -88.49224,-11.62812c-0.26256,-0.07024 -0.52972,-0.10536 -0.8015,-0.10536zM179.31412,152.14697c1.00655,-14.52306 2.80396,-26.75978 6.29812,-38.3926h0.17255c29.18986,7.80794 59.24252,11.72341 89.29518,11.73348c30.05266,-0.01438 59.96181,-3.92554 89.29551,-11.73348c3.49416,11.6472 5.29013,23.86955 6.29812,38.3926c0.82393,8.74863 1.25387,17.45053 1.25531,26.09994v0.08024c0,3.58748 -0.07477,7.16591 -0.22575,10.73498h-193.40645c-0.15178,-3.59755 -0.22641,-7.20459 -0.22647,-10.82097v-0.00834c0.00014,-8.64481 0.42645,-17.34182 1.24389,-26.08585zM304.96425,146.02212h-0.99203l-0.70847,-5.45607h2.36194zM240.43543,157.43049c2.20448,0 4.10974,-0.75577 5.7159,-2.26747l0.70861,0.63772c-0.20462,0.23625 -0.50385,0.51176 -0.89755,0.82666c-0.39356,0.31491 -0.88576,0.61011 -1.47618,0.88576c-0.59056,0.27551 -1.28335,0.50773 -2.07852,0.69682c-0.79517,0.18894 -1.69675,0.28342 -2.70445,0.28342c-1.59035,0 -2.9604,-0.24804 -4.10988,-0.74413c-1.14948,-0.49594 -2.0942,-1.14948 -2.8343,-1.96032c-0.7401,-0.81099 -1.28723,-1.74003 -1.64154,-2.78713c-0.35431,-1.0471 -0.53146,-2.1218 -0.53146,-3.22412c0,-1.27544 0.22043,-2.42895 0.6613,-3.46023c0.44087,-1.03142 1.06292,-1.9133 1.866,-2.6455c0.80308,-0.73219 1.7675,-1.29514 2.8934,-1.6887c1.1259,-0.3937 2.37373,-0.59056 3.74364,-0.59056c0.94486,0 1.7872,0.09447 2.5273,0.28342c0.7401,0.18894 1.38573,0.44878 1.93689,0.7795c0.55116,0.33072 1.01172,0.72428 1.3817,1.18097c0.37012,0.45669 0.67324,0.95263 0.90934,1.48797h-1.7478c-0.11029,-0.33058 -0.30311,-0.65728 -0.57877,-0.98009c-0.27551,-0.32281 -0.62981,-0.61026 -1.06277,-0.86218c-0.4331,-0.25192 -0.92904,-0.45669 -1.48811,-0.61414c-0.55892,-0.15745 -1.17709,-0.23611 -1.85406,-0.23611c-0.99203,0 -1.90928,0.18103 -2.75176,0.54325c-0.84248,0.36207 -1.57065,0.86606 -2.18479,1.51155c-0.61414,0.64563 -1.09052,1.41334 -1.42901,2.30298c-0.33849,0.88965 -0.50788,1.86988 -0.50788,2.9407c0,1.0077 0.16148,1.97614 0.48429,2.90519c0.32281,0.92904 0.79906,1.7478 1.42901,2.45641c0.62981,0.70861 1.41708,1.27544 2.36194,1.70064c0.94472,0.42519 2.03121,0.63772 3.25949,0.63772zM307.73959,155.87163c-0.32281,-0.55116 -0.49997,-1.1653 -0.53146,-1.84241h1.60616c0.01582,0.26774 0.0788,0.59444 0.18894,0.98023c0.11029,0.3858 0.32281,0.7598 0.63772,1.12201c0.31491,0.36207 0.77159,0.67309 1.36991,0.93293c0.59832,0.25983 1.39364,0.38968 2.38566,0.38968c1.24395,0 2.23986,-0.23611 2.98787,-0.70861c0.74801,-0.47236 1.12187,-1.22037 1.12187,-2.24388c0,-0.81876 -0.23611,-1.47229 -0.70847,-1.96032c-0.4725,-0.48818 -1.06694,-0.90158 -1.78332,-1.24007c-0.71652,-0.33849 -1.49199,-0.6416 -2.32656,-0.90934c-0.83457,-0.26774 -1.61005,-0.59056 -2.32656,-0.96844c-0.71637,-0.37789 -1.31081,-0.85025 -1.78332,-1.41722c-0.47236,-0.56683 -0.70847,-1.3147 -0.70847,-2.24374c0,-0.70861 0.14566,-1.33857 0.43684,-1.88958c0.29132,-0.55116 0.68503,-1.00784 1.18111,-1.37006c0.49594,-0.36221 1.07068,-0.63772 1.72422,-0.82666c0.65339,-0.18894 1.3423,-0.28342 2.06673,-0.28342c0.69279,0 1.35812,0.08268 1.99584,0.24804c0.63772,0.16536 1.20843,0.40938 1.71243,0.73219c0.50385,0.32281 0.92114,0.71652 1.25186,1.18097c0.33058,0.46459 0.54325,0.98814 0.63772,1.57065h-1.60616c-0.12596,-0.9289 -0.54727,-1.61005 -1.26365,-2.04301c-0.71652,-0.4331 -1.58646,-0.64951 -2.60998,-0.64951c-0.61409,0 -1.15734,0.07477 -1.62975,0.22432c-0.47236,0.14954 -0.86995,0.3464 -1.19276,0.59056c-0.32281,0.24402 -0.56697,0.53146 -0.73234,0.86204c-0.16522,0.33072 -0.2479,0.68503 -0.2479,1.06292c0,0.67712 0.24402,1.22037 0.73219,1.62975c0.48818,0.40938 1.09829,0.77159 1.83048,1.0865c0.73219,0.31491 1.52737,0.61414 2.38566,0.89755c0.85815,0.28342 1.65333,0.63384 2.38552,1.05112c0.73219,0.41729 1.34245,0.93681 1.83048,1.55886c0.48818,0.62205 0.73219,1.4211 0.73219,2.39745c0,0.70847 -0.14164,1.3541 -0.42505,1.93674c-0.28342,0.58265 -0.68503,1.07859 -1.20469,1.48811c-0.51952,0.40938 -1.14545,0.72428 -1.87764,0.94472c-0.73234,0.22043 -1.55497,0.33072 -2.46834,0.33072c-0.89755,0 -1.72422,-0.10626 -2.47999,-0.31893c-0.75592,-0.21253 -1.41334,-0.51176 -1.97226,-0.89755c-0.55907,-0.3858 -0.99993,-0.85427 -1.32275,-1.40529zM262.21268,149.99023h-9.89653v8.21976h-2.14941v-16.53385h2.14941v7.22759h9.89653v-7.22759h2.14941v16.53385h-2.14941zM279.2189,153.34433l2.26747,4.86566h2.29119l-7.7001,-16.53385h-1.18097l-6.99134,16.53385h1.0865l2.07852,-4.86566zM287.55657,141.67614v16.53385h5.71604c1.18097,0 2.29105,-0.20476 3.33038,-0.61414c1.03924,-0.40943 1.94858,-0.98416 2.72803,-1.72422c0.7795,-0.7401 1.39349,-1.61795 1.84227,-2.63371c0.44878,-1.01561 0.67324,-2.12971 0.67324,-3.34217c0,-1.16515 -0.21655,-2.25165 -0.64951,-3.25949c-0.4331,-1.0077 -1.03933,-1.87779 -1.81883,-2.60998c-0.77936,-0.73219 -1.71228,-1.30693 -2.79892,-1.72422c-1.0865,-0.41729 -2.28314,-0.62593 -3.59007,-0.62593zM292.30417,157.17065h-2.59819v-14.45519h2.59819c1.16515,0 2.19658,0.19685 3.09413,0.59041c0.89755,0.3937 1.64945,0.92516 2.25567,1.59437c0.60623,0.66921 1.0668,1.4408 1.38185,2.31477c0.31491,0.87383 0.47236,1.78317 0.47236,2.72803c0,0.85025 -0.13387,1.70452 -0.40161,2.56267c-0.2676,0.8583 -0.69279,1.63377 -1.27544,2.32656c-0.5825,0.69294 -1.32649,1.25588 -2.23195,1.68884c-0.90546,0.43296 -2.00375,0.64951 -3.29501,0.64951zM278.72281,152.28142h-7.20387l3.40113,-7.95978h0.09447zM241.31444,172.03881c-1.10706,1.04192 -2.42032,1.56288 -3.93963,1.56288c-0.84665,0 -1.59552,-0.14652 -2.24676,-0.43957c-0.65109,-0.29305 -1.19377,-0.68373 -1.62788,-1.1722c-0.43411,-0.48832 -0.76253,-1.05271 -0.98498,-1.69316c-0.22245,-0.64031 -0.33374,-1.30779 -0.33374,-2.00231c0,-0.73809 0.11662,-1.41363 0.34999,-2.0269c0.23338,-0.61313 0.56165,-1.14229 0.98498,-1.58733c0.42333,-0.44489 0.92516,-0.7923 1.50594,-1.04192c0.58063,-0.24962 1.21275,-0.37444 1.89648,-0.37444c0.46675,0 0.89281,0.05435 1.27803,0.16292c0.38522,0.10842 0.72716,0.24962 1.02567,0.42318c0.29837,0.1737 0.54253,0.37185 0.73248,0.59429c0.18995,0.22245 0.32296,0.44763 0.39888,0.67554h1.20469c-0.16277,-0.36897 -0.3717,-0.71091 -0.62665,-1.02553c-0.25509,-0.31476 -0.57258,-0.5861 -0.95248,-0.81401c-0.37976,-0.22791 -0.82479,-0.40708 -1.33497,-0.53721c-0.51003,-0.13028 -1.09067,-0.19541 -1.7419,-0.19541c-0.94414,0 -1.80431,0.1356 -2.58036,0.40693c-0.77605,0.27134 -1.4408,0.65943 -1.99426,1.164c-0.55346,0.50471 -0.98225,1.11252 -1.28608,1.82343c-0.30398,0.71091 -0.45582,1.5058 -0.45582,2.38494c0,0.7598 0.12208,1.50048 0.36624,2.22217c0.24416,0.72184 0.62133,1.36215 1.1315,1.92107c0.51003,0.55892 1.16127,1.00942 1.95357,1.35122c0.7923,0.34194 1.73644,0.51291 2.83271,0.51291c0.69466,0 1.31599,-0.06514 1.86398,-0.19541c0.54814,-0.13028 1.02567,-0.29032 1.43261,-0.48027c0.40708,-0.18995 0.74614,-0.39342 1.01748,-0.61054c0.27134,-0.21698 0.47754,-0.40693 0.61874,-0.56971zM256.63382,168.44098c0,0.60767 0.11662,1.25617 0.34999,1.94537c0.23338,0.6892 0.59962,1.32677 1.09886,1.91287c0.49925,0.5861 1.13424,1.07183 1.90482,1.45705c0.77058,0.38536 1.69301,0.57805 2.76758,0.57805c0.72716,0 1.38645,-0.08958 1.97801,-0.26875c0.59142,-0.17902 1.12331,-0.42045 1.59538,-0.72443c0.47207,-0.30383 0.88188,-0.65383 1.22914,-1.04997c0.34726,-0.39615 0.63226,-0.81401 0.8547,-1.25358c0.22245,-0.43957 0.39068,-0.88188 0.50471,-1.32677c0.11388,-0.44504 0.17097,-0.86836 0.17097,-1.26983c0,-0.60776 -0.12481,-1.25627 -0.37444,-1.94551c-0.24962,-0.6892 -0.63499,-1.32677 -1.15595,-1.91287c-0.52096,-0.5861 -1.18025,-1.07169 -1.97801,-1.45705c-0.79776,-0.38522 -1.73917,-0.5779 -2.82452,-0.5779c-1.07456,0 -1.99699,0.18995 -2.76758,0.56971c-0.77058,0.3799 -1.40557,0.86017 -1.90482,1.4408c-0.49925,0.58063 -0.86549,1.21835 -1.09886,1.91287c-0.23338,0.69466 -0.34999,1.35122 -0.34999,1.96996zM252.38475,168.47347h-6.82123v5.66543h-1.4815v-11.39585h1.4815v4.98155h6.82123v-4.98155h1.4815v11.39585h-1.4815zM274.2487,169.57234c-0.32569,-0.04875 -0.62952,-0.11115 -0.91179,-0.18722v4.75378h-1.48135v-11.39585h3.8095c0.62938,0 1.17752,0.09217 1.64412,0.27666c0.46675,0.18449 0.8547,0.43138 1.16415,0.74082c0.3093,0.3093 0.53994,0.67281 0.69179,1.09067c0.15199,0.41786 0.22791,0.8547 0.22791,1.31053c0,0.47754 -0.08671,0.92531 -0.26041,1.34317c-0.1737,0.41786 -0.43138,0.78683 -0.77332,1.10692c-0.34194,0.32023 -0.76785,0.57258 -1.27803,0.75707c-0.51003,0.18449 -1.09613,0.2768 -1.75815,0.2768c-0.39068,0 -0.74887,-0.02444 -1.07442,-0.07333zM289.1935,162.74305h-7.35844v11.39585h7.35844v-0.8954h-5.87695v-4.77003h5.04669v-0.74887h-5.04669v-4.0863h5.87695zM293.11703,174.1389h-1.4815v-11.39585h3.69547c0.72716,0 1.32965,0.10037 1.80719,0.3011c0.47754,0.20073 0.8547,0.45036 1.13136,0.74887c0.2768,0.29851 0.47221,0.62133 0.5861,0.96873c0.11403,0.34726 0.17097,0.66734 0.17097,0.96039c0,0.32569 -0.05435,0.65943 -0.16277,1.00123c-0.10856,0.34194 -0.28226,0.65943 -0.52096,0.95234c-0.23884,0.29305 -0.54541,0.53721 -0.91984,0.73262c-0.37444,0.19541 -0.82221,0.3093 -1.34317,0.34194v0.06514l0.16292,0.08139c0.13013,0.06514 0.24143,0.14652 0.33374,0.24416c0.09217,0.09764 0.21152,0.25509 0.35804,0.47207c0.14652,0.21713 0.34467,0.52369 0.59429,0.91984c0.24962,0.39615 0.60235,0.92531 1.05817,1.58733c0.15199,0.22791 0.29851,0.43138 0.43957,0.61054c0.14106,0.17902 0.28759,0.33101 0.43957,0.45582c0.15185,0.12481 0.31476,0.21972 0.48832,0.28485c0.1737,0.06514 0.37444,0.09764 0.60235,0.09764c0.05435,0 0.10856,-0.00273 0.16292,-0.00805c0.05421,-0.00546 0.10842,-0.01366 0.16277,-0.02444v0.60235c-0.15199,0.08685 -0.30398,0.14106 -0.45582,0.16277c-0.15199,0.02171 -0.3474,0.03264 -0.5861,0.03264c-0.32569,0 -0.60508,-0.04343 -0.83845,-0.13028c-0.23338,-0.08685 -0.44231,-0.20347 -0.62679,-0.34999c-0.18449,-0.14652 -0.35546,-0.32296 -0.51276,-0.52916c-0.15745,-0.2062 -0.31749,-0.43411 -0.48027,-0.68373l-1.28608,-1.90482c-0.19541,-0.30383 -0.36365,-0.55892 -0.50471,-0.76512c-0.14106,-0.2062 -0.29305,-0.37444 -0.45582,-0.50471c-0.16277,-0.13013 -0.34453,-0.22245 -0.54541,-0.27666c-0.20073,-0.05435 -0.45309,-0.08139 -0.75707,-0.08139h-0.71623zM305.45717,162.74305h-1.4815v11.39585h1.4815zM317.91119,174.1389l-1.56288,-3.35368h-5.61654l-1.43261,3.35368h-0.74887l4.81892,-11.39585h0.81401l5.3071,11.39585zM258.2292,168.44098c0,-0.7598 0.11676,-1.45705 0.35014,-2.09204c0.23323,-0.63484 0.55346,-1.18025 0.96039,-1.63607c0.40708,-0.45582 0.88734,-0.81128 1.4408,-1.06637c0.5536,-0.25509 1.15595,-0.38263 1.80704,-0.38263c0.64045,0 1.24539,0.12754 1.81524,0.38263c0.56985,0.25509 1.0691,0.61054 1.49774,1.06637c0.42865,0.45582 0.76785,1.00123 1.01748,1.63607c0.24962,0.63499 0.37444,1.33224 0.37444,2.09204c0,0.75966 -0.12481,1.45705 -0.37444,2.0919c-0.24962,0.63499 -0.58883,1.18025 -1.01748,1.63622c-0.42865,0.45582 -0.92789,0.81128 -1.49774,1.06622c-0.56985,0.25509 -1.17479,0.38263 -1.81524,0.38263c-0.65109,0 -1.25344,-0.12754 -1.80704,-0.38263c-0.55346,-0.25494 -1.03373,-0.6104 -1.4408,-1.06622c-0.40693,-0.45597 -0.72716,-1.00123 -0.96039,-1.63622c-0.23338,-0.63484 -0.35014,-1.33224 -0.35014,-2.0919zM275.04632,163.45928h-1.70941v5.25835c0.22791,0.08685 0.483,0.14379 0.76526,0.17097c0.28212,0.02718 0.59142,0.04069 0.92789,0.04069c0.48846,0 0.90618,-0.08139 1.25358,-0.24416c0.34726,-0.16277 0.63484,-0.37444 0.86276,-0.63499c0.22791,-0.26041 0.39342,-0.55073 0.49652,-0.87095c0.1031,-0.32008 0.15472,-0.63758 0.15472,-0.95234c0,-0.32555 -0.05694,-0.65383 -0.17097,-0.98498c-0.11388,-0.33101 -0.28485,-0.62938 -0.51276,-0.8954c-0.22791,-0.26587 -0.5155,-0.48012 -0.8629,-0.64304c-0.34726,-0.16277 -0.74887,-0.24416 -1.20469,-0.24416zM294.7613,163.45928h-1.64427v4.91656h1.67677c0.43411,0 0.81674,-0.07607 1.14775,-0.22791c0.33101,-0.15199 0.61054,-0.34999 0.83845,-0.59429c0.22791,-0.24416 0.39888,-0.5155 0.51276,-0.81401c0.11403,-0.29837 0.17097,-0.59415 0.17097,-0.8872c0,-0.34726 -0.06241,-0.66749 -0.18722,-0.96053c-0.12481,-0.29305 -0.30657,-0.54541 -0.54541,-0.75692c-0.2387,-0.21166 -0.52369,-0.37717 -0.8547,-0.49666c-0.33101,-0.11935 -0.70271,-0.17902 -1.11511,-0.17902zM311.04121,170.0526h4.9653l-2.55591,-5.48626h-0.06514z" data-paper-data="{&quot;isBaseLogoContainer&quot;:true}"></path></g></g></g></svg>